<svg width="26" height="26" viewBox="0 0 26 26" fill="none" xmlns="http://www.w3.org/2000/svg">
<path fill-rule="evenodd" clip-rule="evenodd" d="M3.19104 4.99505L10.2151 12.0222C11.7471 13.5512 14.2513 13.5525 15.7845 12.0222L22.8086 4.99505C22.8252 4.97854 22.838 4.95857 22.846 4.93657C22.854 4.91457 22.8571 4.89108 22.8551 4.86775C22.853 4.84442 22.8458 4.82183 22.8341 4.80158C22.8223 4.78133 22.8062 4.76392 22.787 4.75059C22.0705 4.25095 21.1989 3.95474 20.2599 3.95474H5.73976C4.80076 3.95474 3.9291 4.251 3.21268 4.75059C3.19343 4.76392 3.17735 4.78133 3.16558 4.80158C3.15381 4.82183 3.14663 4.84442 3.14457 4.86775C3.14251 4.89108 3.1456 4.91457 3.15363 4.93657C3.16166 4.95857 3.17444 4.97854 3.19104 4.99505ZM1.31397 8.38048C1.31339 7.66648 1.48691 6.96311 1.81949 6.33131C1.8311 6.30903 1.84781 6.28981 1.86824 6.27521C1.88868 6.2606 1.91227 6.25103 1.93711 6.24725C1.96194 6.24348 1.98731 6.24563 2.01116 6.25351C2.03501 6.26139 2.05667 6.27479 2.07436 6.29261L9.00951 13.2278C11.2056 15.4271 14.7927 15.4284 16.9902 13.2278L23.9253 6.29261C23.943 6.27479 23.9647 6.26139 23.9885 6.25351C24.0124 6.24563 24.0378 6.24348 24.0626 6.24725C24.0874 6.25103 24.111 6.2606 24.1315 6.27521C24.1519 6.28981 24.1686 6.30903 24.1802 6.33131C24.5128 6.96313 24.6863 7.66649 24.6857 8.38048V17.6195C24.6857 20.0617 22.6991 22.0453 20.2599 22.0453H5.73976C3.30063 22.0453 1.31397 20.0617 1.31397 17.6195V8.38048Z" fill="#FF8C1C"/>
</svg>
