<svg width="17" height="17" viewBox="0 0 17 17" fill="none" xmlns="http://www.w3.org/2000/svg">
<path d="M13.3058 4.50694C12.9029 3.71283 12.3069 3.03271 11.5725 2.52911C10.8381 2.02552 9.98897 1.71459 9.10304 1.62491C8.70207 1.58466 8.29807 1.58466 7.8971 1.62491C7.01121 1.71473 6.1621 2.02571 5.42775 2.5293C4.6934 3.03288 4.09736 3.71292 3.69438 4.50694C3.18734 5.52013 2.99143 6.6607 3.13135 7.78501C3.27126 8.90932 3.74073 9.96709 4.48063 10.8251L8.08995 15.2132C8.13979 15.2738 8.20241 15.3225 8.27331 15.356C8.34422 15.3894 8.42166 15.4068 8.50007 15.4068C8.57848 15.4068 8.65592 15.3894 8.72683 15.356C8.79774 15.3225 8.86036 15.2738 8.9102 15.2132L12.519 10.8251C13.259 9.96714 13.7285 8.9094 13.8685 7.78509C14.0085 6.66078 13.8127 5.52018 13.3058 4.50694ZM8.50007 9.0316C8.07979 9.0316 7.66894 8.90697 7.31948 8.67347C6.97003 8.43998 6.69766 8.1081 6.53683 7.7198C6.37599 7.33151 6.33391 6.90424 6.4159 6.49203C6.4979 6.07982 6.70028 5.70119 6.99747 5.404C7.29466 5.10681 7.67329 4.90443 8.0855 4.82243C8.49771 4.74044 8.92498 4.78252 9.31327 4.94336C9.70157 5.10419 10.0334 5.37656 10.2669 5.72601C10.5004 6.07547 10.6251 6.48632 10.6251 6.9066C10.6244 7.46997 10.4003 8.01006 10.0019 8.40843C9.60353 8.80679 9.06344 9.0309 8.50007 9.0316Z" fill="#F89E41"/>
</svg>
