<svg width="18" height="17" viewBox="0 0 18 17" fill="none" xmlns="http://www.w3.org/2000/svg">
<path fill-rule="evenodd" clip-rule="evenodd" d="M2.5867 3.26614L7.17935 7.86079C8.18102 8.86053 9.8184 8.86139 10.8209 7.86079L15.4136 3.26614C15.4244 3.25534 15.4328 3.24229 15.438 3.2279C15.4433 3.21352 15.4453 3.19816 15.4439 3.1829C15.4426 3.16765 15.4379 3.15288 15.4302 3.13964C15.4225 3.1264 15.412 3.11502 15.3994 3.1063C14.931 2.77961 14.3611 2.58594 13.7471 2.58594H4.25316C3.6392 2.58594 3.06927 2.77964 2.60084 3.1063C2.58825 3.11502 2.57774 3.1264 2.57004 3.13964C2.56235 3.15288 2.55766 3.16765 2.55631 3.1829C2.55496 3.19816 2.55698 3.21352 2.56223 3.2279C2.56748 3.24229 2.57584 3.25534 2.5867 3.26614ZM1.35938 5.47969C1.359 5.01285 1.47246 4.55295 1.68991 4.13984C1.6975 4.12528 1.70842 4.11271 1.72179 4.10316C1.73515 4.09361 1.75058 4.08735 1.76681 4.08489C1.78305 4.08242 1.79964 4.08382 1.81523 4.08898C1.83083 4.09413 1.84499 4.10289 1.85656 4.11454L6.39108 8.64906C7.82701 10.0871 10.1724 10.0879 11.6092 8.64906L16.1437 4.11454C16.1553 4.10289 16.1695 4.09413 16.1851 4.08898C16.2007 4.08382 16.2172 4.08242 16.2335 4.08489C16.2497 4.08735 16.2651 4.09361 16.2785 4.10316C16.2919 4.11271 16.3028 4.12528 16.3104 4.13984C16.5278 4.55296 16.6413 5.01285 16.6409 5.47969V11.5206C16.6409 13.1174 15.342 14.4144 13.7471 14.4144H4.25316C2.65835 14.4144 1.35938 13.1174 1.35938 11.5206V5.47969Z" fill="#F89E41"/>
</svg>
