<svg width="18" height="17" viewBox="0 0 18 17" fill="none" xmlns="http://www.w3.org/2000/svg">
<g clip-path="url(#clip0_94_147)">
<path d="M13.4243 11.2458C12.8689 10.6975 12.1756 10.6975 11.6237 11.2458C11.2028 11.6633 10.7818 12.0807 10.3679 12.5052C10.2547 12.6219 10.1592 12.6467 10.0212 12.5689C9.74884 12.4203 9.45876 12.3 9.19698 12.1373C7.97653 11.3697 6.95418 10.3827 6.04857 9.27189C5.5993 8.72003 5.19956 8.12927 4.92009 7.46421C4.86349 7.32978 4.87411 7.24134 4.98377 7.13168C5.40474 6.72486 5.81509 6.30743 6.22898 5.89C6.8056 5.30985 6.8056 4.63064 6.22545 4.04695C5.89646 3.71442 5.56746 3.38896 5.23847 3.05643C4.89887 2.71683 4.5628 2.37369 4.21966 2.03762C3.66427 1.49638 2.97091 1.49638 2.41905 2.04116C1.99455 2.45859 1.58773 2.88663 1.15615 3.29699C0.75641 3.6755 0.55477 4.13892 0.51232 4.68016C0.445107 5.56101 0.660897 6.39233 0.965125 7.20243C1.58773 8.87922 2.53579 10.3685 3.68549 11.734C5.23847 13.5806 7.09214 15.0416 9.26066 16.0958C10.237 16.5698 11.2488 16.9342 12.3489 16.9943C13.106 17.0368 13.7639 16.8458 14.291 16.255C14.6519 15.8517 15.0587 15.4838 15.4407 15.0982C16.0067 14.5251 16.0103 13.8318 15.4478 13.2658C14.7757 12.5901 14.1 11.918 13.4243 11.2458ZM12.7487 8.42642L14.054 8.20355C13.8488 7.00433 13.2828 5.9183 12.4232 5.05514C11.5141 4.146 10.3644 3.57291 9.09793 3.39604L8.91398 4.70847C9.89388 4.84643 10.7853 5.28862 11.4893 5.99259C12.1544 6.65765 12.5895 7.49958 12.7487 8.42642ZM14.7898 2.75221C13.2828 1.24521 11.3761 0.293616 9.27127 0L9.08732 1.31243C10.9056 1.56713 12.5541 2.39138 13.8559 3.68965C15.0905 4.92425 15.9006 6.48431 16.1942 8.20002L17.4996 7.97715C17.1564 5.98905 16.219 4.18491 14.7898 2.75221Z" fill="#F89E41"/>
</g>
<defs>
<clipPath id="clip0_94_147">
<rect width="17" height="17" fill="white" transform="translate(0.5)"/>
</clipPath>
</defs>
</svg>
