<svg width="18" height="17" viewBox="0 0 18 17" fill="none" xmlns="http://www.w3.org/2000/svg">
<g clip-path="url(#clip0_94_131)">
<path d="M9.00212 0H8.99788C4.31119 0 0.5 3.81225 0.5 8.5C0.5 10.3594 1.09925 12.0828 2.11819 13.4821L1.05888 16.6398L4.32606 15.5954C5.67013 16.4858 7.27344 17 9.00212 17C13.6888 17 17.5 13.1867 17.5 8.5C17.5 3.81331 13.6888 0 9.00212 0ZM13.9481 12.0031C13.743 12.5821 12.9291 13.0624 12.2799 13.2026C11.8358 13.2972 11.2557 13.3726 9.30281 12.563C6.80487 11.5281 5.19625 8.98981 5.07088 8.82512C4.95081 8.66044 4.0615 7.48106 4.0615 6.26131C4.0615 5.04156 4.68094 4.44763 4.93062 4.19263C5.13569 3.98331 5.47463 3.88769 5.79975 3.88769C5.90494 3.88769 5.9995 3.893 6.0845 3.89725C6.33419 3.90788 6.45956 3.92275 6.62425 4.31694C6.82931 4.811 7.32869 6.03075 7.38819 6.15613C7.44875 6.2815 7.50931 6.4515 7.42431 6.61619C7.34462 6.78619 7.2745 6.86162 7.14913 7.00612C7.02375 7.15062 6.90475 7.26113 6.77938 7.41625C6.66462 7.55119 6.535 7.69569 6.6795 7.94537C6.824 8.18975 7.32337 9.00469 8.05862 9.65919C9.00744 10.5039 9.77669 10.7738 10.0519 10.8885C10.2569 10.9735 10.5013 10.9533 10.6511 10.7939C10.8413 10.5889 11.0761 10.2489 11.3152 9.91419C11.4852 9.67406 11.6998 9.64431 11.9251 9.72931C12.1546 9.809 13.369 10.4093 13.6187 10.5336C13.8684 10.659 14.0331 10.7185 14.0936 10.8237C14.1531 10.9289 14.1531 11.4229 13.9481 12.0031Z" fill="#F89E41"/>
</g>
<defs>
<clipPath id="clip0_94_131">
<rect width="17" height="17" fill="white" transform="translate(0.5)"/>
</clipPath>
</defs>
</svg>
